<svg id="Layer_1" data-name="Layer 1" xmlns="http://www.w3.org/2000/svg" viewBox="0 0 1080 216"><defs><style>.cls-1{fill:#094267;}.cls-2{fill:#f9552b;}</style></defs><title>hello_code_horz_rgb</title><path class="cls-1" d="M19,55c2.9-3.787,3.316-3.991,8.247-4q2.5,0,4.995,0a13.652,13.652,0,0,1,2.986.049,15.532,15.532,0,0,1,3.011,1.537,41.342,41.342,0,0,1,.725,5.607C39.035,71.332,39,84.47,39,97.5l1.334,1.334H90.965c0.076-7.241.023-14.663,0.033-22.083,0.009-7.326,0-14.652,0-22.392l4.465-3.386c4.679,0.483,9.619-1.016,14.483,1.307a20.03,20.03,0,0,1,1.007,4.435q0.088,51.931.045,103.706a8.866,8.866,0,0,1-8.153,3.62c-2.311-.212-4.658-0.041-7.3-0.041l-4.486-3.13V116h-4.49q-21.728,0-43.456.013c-1.43,0-3.114-.564-4.03,2.052v42.506l-4.4,3.344H23.5L19,161V55Z"/><path class="cls-1" d="M542,21l1.075,0.888c3.128,3.63,3.185,7.453,2.82,11.682l-2.949,4.254a78.292,78.292,0,0,0-9.246,1.414c-2.812.452-5.214,2.99-6.694,5.808-0.934,1.778-1.812,3.585-2.8,5.554-2.106,9.34-.895,19.06-1.2,28.72-0.016.5-1.736,7.084-2,7.656-1.868,4.041-3.839,7.95-7.348,10.962a47.3,47.3,0,0,1-8.8,5.692c6.794,2.37,11.121,7.468,15.174,13.348a3.366,3.366,0,0,0,.032,1.532A32.373,32.373,0,0,1,523,130.765c0,6.488.026,12.976-.01,19.464-0.021,3.69,1.077,7.136,1.889,10.678a11.529,11.529,0,0,0,3.189,5.7,11.374,11.374,0,0,1,1.273,2.128,28.785,28.785,0,0,1,3.549,1.7,8.231,8.231,0,0,0,5.845,1.549c2.267-.354,3.935.887,5.64,1.741C546.928,179.232,546.6,184.271,543,189H529a1.983,1.983,0,0,0-.355-0.818c-4.424-.382-7.885-2.654-11.324-5.263a34.166,34.166,0,0,1-8.593-9.889c-2.029-3.4-2.958-7.415-3.788-11.4-1.734-8.323-.387-16.718-0.99-25.046-0.5-6.918-2.348-13.412-8-18.116a13.679,13.679,0,0,0-2.759-1.76,20.907,20.907,0,0,1-8.087-6.3V97.416c2.078-1.913,3.866-4.712,7.3-5.416,4.979-4.156,9.409-7.645,10.767-15.895a42.472,42.472,0,0,0,.825-6.6c0.033-4.657.008-9.315,0.01-13.973,0-6.331,3.076-17.131,7.087-21.986,4.95-5.991,10.8-10.93,19.12-11.586A2.386,2.386,0,0,0,531,21h11Z"/><path class="cls-1" d="M1005,189c-2.528-2.247-2.985-3.251-3-6.663-0.008-2.164,0-4.329,0-6.658,1.857-2.533,4.323-3.607,7.689-3.8,4.178-.233,7.96-1.875,10.323-5.78,2.49-4.113,4.134-8.41,4.018-13.336-0.133-5.658-.222-11.329.036-16.978a45.827,45.827,0,0,1,1.914-11.168c1.888-6.245,5.875-10.866,11.028-14.613,1.644-1.2,3.368-2.281,5.312-3.589a26.637,26.637,0,0,1-12.433-9.212,24.161,24.161,0,0,1-3.968-8.318c-3.042-10.443-1.592-21.1-1.888-31.661a23.5,23.5,0,0,0-3.066-11.224,34.016,34.016,0,0,0-2.858-3.875c-3.442-3.794-7.862-2.484-11.418-4.113a34.569,34.569,0,0,0-3.394-1.173c-2.311-3.92-.847-8.105-1.4-12.3L1006,21h11a3.2,3.2,0,0,0,1.29.953c2.974-.037,5.453,1.56,7.818,2.841a29.809,29.809,0,0,1,9.6,8.2c4.158,5.426,6.161,11.592,7.148,18.017,0.75,4.879.436,9.987,0.068,14.954s1.6,9.651,1.073,14.272c0.692,1.172,1.543,2.053,1.75,3.065,0.791,3.867,3.218,6.7,6.12,8.9,2.793,2.123,6.134,3.525,9.234,5.244,2.158,0.906-.364,3.822,1.9,4.547v9c-1.917.226-.471,1.948-1.069,2.911-2.914,2.165-5.957,4.128-9,6.088a17.58,17.58,0,0,0-7.737,9.987c-1.241,4.7-2.361,9.582-2.218,14.589,0.119,4.155.157,8.321-.021,12.472-0.123,2.855-.175,5.873-1.128,8.5-3.176,8.754-7.795,16.427-16.84,20.532-2,.908-4.342,1.245-5.986,2.919h-14Z"/><path class="cls-1" d="M344,106.7c0-2-.051-4,0.01-5.995,0.189-6.2,2.064-11.959,4.376-17.667,1.951-4.816,4.848-9.045,7.7-13.276a27.37,27.37,0,0,1,6.544-6.743c3.532-2.554,6.806-5.455,10.952-7.261,4.571-1.991,9.249-3.423,13.956-4.95,2.92-.947,5.88-0.57,8.8-1.594,2.818-.988,6.315-0.607,9.4-0.121,4.484,0.706,9.028.905,13.464,2.38,2.92,0.971,5.9,1.925,8.727,3.088a43.68,43.68,0,0,1,11.82,7.662c1.194,1.036,2.651,1.779,3.792,2.862a45.888,45.888,0,0,1,8.809,11.83,81.575,81.575,0,0,1,5.155,10.859c0.573,1.606-.559,3.784,1.492,4.867,0.742,3.428,2.044,18.971.812,21.99-1.03,2.522-.5,5-1.272,7.456a91.357,91.357,0,0,1-7.572,17.851,34.518,34.518,0,0,1-3.844,5.4A58.015,58.015,0,0,1,424.86,161.5a47.532,47.532,0,0,1-9.922,2.7c-5.057.873-10.034,2.049-15.191,1.767-2.537-.139-5.047-0.807-7.583-0.918-2.575-.112-4.885-1.094-7.307-1.7a29.456,29.456,0,0,1-6.538-2.314c-2.179-1.136-4.7-1.715-6.694-3.089-6.1-4.212-11.97-8.652-16.266-14.961-3.558-5.224-6.573-10.215-8.358-16.041C344,117.144,344,117.144,344,106.7Zm20.99-.464a56.251,56.251,0,0,0,.841,9.605,49.585,49.585,0,0,0,2.887,9.322c2.166,5.062,4.864,8,10.091,13.234,5.845,5.849,13.3,7.657,20.94,8.472a31.572,31.572,0,0,0,19.923-4.8c1.6-.968,3.671-1.348,4.687-3.016,0.932-1.531,2.84-1.658,3.736-3.336s3.1-2.721,3.806-4.426c2.232-5.4,6.426-10.1,6.1-16.446,2.03-3.013.519-6.4,1.008-9.57,0.533-3.451-.385-6.908-1.4-9.925-2.883-8.6-7.136-16.5-15.275-21.548-4.678-2.9-9.722-5.134-15.092-5.632a40.2,40.2,0,0,0-13.584.691c-10.624,2.636-18.673,8.337-23.86,17.9A36.519,36.519,0,0,0,364.99,106.235Z"/><path class="cls-1" d="M232,103.7l-4.128,5.206H150.29c-1.052,4.724.809,8.849,2.152,12.975,1.833,5.628,5.189,11.583,9.637,15.35a38.484,38.484,0,0,0,18.183,8.933,51.96,51.96,0,0,0,11.608.768,36.115,36.115,0,0,0,12.264-2.908c3.623-1.5,7.146-3.073,10.139-5.729,1.959-1.738,4.544-1.294,6.946-1.29,3.142,2.136,5.113,5.207,6.774,8.905v4.832c-4.734,3.693-9.193,8.049-15.548,9.315-4.1,3.2-9.53,2.636-13.955,4.927a2.4,2.4,0,0,1-.99.018c-7,0-14.067.6-20.968-.215a44.609,44.609,0,0,1-13.384-3.739c-9.185-4.247-15.817-8.34-20.265-13.746-4.072-4.95-7.786-10.12-10.016-16.333-1.2-3.336-2.532-6.623-3.463-10.055a2.911,2.911,0,0,1-.379-0.826c0.7-3.313-1.088-6.347-1.036-9.587,0.053-3.331-.468-6.755.14-9.972,0.672-3.556.971-7.193,1.917-10.679,0.887-3.268,1.664-6.72,3.352-9.583,3.438-5.831,6.235-12.257,11.61-16.66,4.26-3.49,8.633-7.206,13.588-9.382a57.982,57.982,0,0,1,15.706-4.47,69.213,69.213,0,0,1,13.605-.636c6.384,0.42,12.732,1.605,18.474,4.772,5.774,3.185,10.834,7.019,14.809,12.552a44.409,44.409,0,0,1,6.957,13.16c1.365,4.53,2.969,8.961,2.91,13.809-0.021,1.69.736,3.376,0.908,5.087C232.13,100.147,232,101.827,232,103.7ZM150.711,93.75H210a43.836,43.836,0,0,0-.036-4.7,29.008,29.008,0,0,0-.977-4.575c-1.772-6.3-5.037-11.489-10.864-14.883-8.3-4.837-17.066-4.4-25.9-2.215-2.167.535-4.55,1.079-6.241,3.04a12.2,12.2,0,0,1-3.8,2.811c-1.621.8-2.27,2.377-3.432,3.527C154.1,81.372,152.349,87.347,150.711,93.75Z"/><path class="cls-1" d="M251.355,52.068c4.732-2.065,9.534-.568,13.833-1.116l3.425,2.042a3.974,3.974,0,0,1,.374,1.051q0.022,33.461.013,66.921c0,3.329-.173,6.67.05,9.985,0.214,3.187.839,6.347,1.35,10,4.611,5.24,5.891,5.913,12.417,6.219,3.107,4.606,2.685,9.562.942,14.5-0.746,2.112-6.175,4.28-8.995,3.171a15.292,15.292,0,0,0-5.644-.815c-6.766-.142-15.177-5.853-17.764-12.171-0.649-1.586-.121-3.5-1.357-4.932,0.723-4.437-1.043-8.67-1.031-13.07q0.1-35.208-.026-70.417A24.462,24.462,0,0,1,251.355,52.068Z"/><path class="cls-1" d="M303,54.244L307.469,51h11.46L323,55.076c0,24.428-.03,48.4.026,72.371,0.011,4.7-.741,9.476,1.281,14.36l4.137,4.137,7.447,1.447,2,2v10.954c-1.03,1.587-1.354,4.3-4.476,3.747-1.905,1.519-3.7,1.178-5.81.158-1.216-.589-2.908-0.223-4.386-0.242a19.415,19.415,0,0,1-13.237-5.463c-4.944-4.5-6.948-10.157-6.959-16.606C302.973,112.8,303,83.671,303,54.244Z"/><path class="cls-2" d="M771,107.4c0,0.832-.065,1.671.01,2.5,0.539,5.859-1.532,11.247-3.022,16.732a52.652,52.652,0,0,1-7.23,14.957,41.023,41.023,0,0,1-8.115,9.073,52.926,52.926,0,0,1-9.115,6.568c-7.309,3.794-10.209,5.168-17.154,6.9a40.1,40.1,0,0,1-7.6.907c-1.4.081-2.831-.459-4.22,0.741a3.289,3.289,0,0,1-3.189-.081c-1.259-1.049-2.515-.67-3.749-0.658a40.712,40.712,0,0,1-16.927-3.775c-8-3.5-14.836-7.472-19.637-12.8-4.744-5.262-9.026-11-11.593-17.645a89.959,89.959,0,0,1-3.627-13.015c-1.271-5.747-1.092-11.469-.668-17.089,0.608-8.069,2.68-16.093,6.981-22.991,3.665-5.877,7.905-11.683,13.6-15.8,6.139-4.439,12.4-8.991,20.332-9.917,3.813-2.088,8.3-1.382,12.267-2.932,0.733-.286,1.811.322,2.732,0.5,0.771,0.153,1.746.657,2.288,0.367,3.45-1.849,6.8.262,10.191,0.242,3.145-.018,6.3,1.481,9.448,2.323a37.96,37.96,0,0,1,9.229,4.238,50.412,50.412,0,0,1,9.73,6.679,63.553,63.553,0,0,1,14.709,19.8,20.187,20.187,0,0,1,2.227,6.533c0.325,3.017,1.59,5.755,2.01,8.662C771.331,101.355,771,104.4,771,107.4Zm-46.294-38.1c-2.506-.452-4.827-1.046-7.181-1.247a49.351,49.351,0,0,0-7.485-.01c-2.371.16-4.725,0.6-7.076,0.987-0.427.07-.77,0.571-1.2,0.693a35.168,35.168,0,0,0-15.568,9.5,27.542,27.542,0,0,0-6.866,10.155c-1.562,4.531-3.56,9.088-3.349,14.115,0.118,2.825-.009,5.66.03,8.489a30.005,30.005,0,0,0,1.757,8.261c1.461,4.82,4.007,8.974,6.89,13.167,5.659,8.232,13.978,11.2,22.86,13.59,5.021-.365,10.06.609,15.094-0.914a42.573,42.573,0,0,0,12.867-6.254,31.988,31.988,0,0,0,7.554-8.266c3.743-5.635,6.967-14.756,6.971-21.1,0-1.831-.063-3.665.011-5.493a31.108,31.108,0,0,0-4.969-18.422c-1.853-2.9-3.363-6.182-5.784-8.5a44.237,44.237,0,0,0-5.638-4.189C730.741,71.9,727.372,71.055,724.706,69.294Z"/><path class="cls-2" d="M899.019,87.788c1.455-3.045,3.26-5.575,3.847-8.362,0.771-3.664,3.409-5.973,5.206-8.851a37.983,37.983,0,0,1,4.98-5.89,52.214,52.214,0,0,1,9.782-7.625c5.107-3.235,11.047-4.681,16.6-6.974A3.19,3.19,0,0,1,940.4,50c4.862-.334,9.721-0.719,14.586-0.976,2.138-.113,16.665,2.766,18.291,4.039,5.466,4.279,11.755,7.319,16.035,13.393a62.535,62.535,0,0,1,8.211,16.652,23.83,23.83,0,0,1,1.549,7.391c0.014,2.364.726,4.715,0.9,7.088,0.166,2.313.036,4.647,0.036,6.654l-2.769,3.7a8.733,8.733,0,0,1-2.375,1,24.031,24.031,0,0,1-3.991.053h-72.88a71.2,71.2,0,0,0,2.393,12.933c1.544,5.432,4.759,9.976,8.336,13.974,2.81,3.14,6.174,6.395,10.847,7.155,7.381,4.794,15.788,4.668,23.841,3.716,7.362-.869,14.694-3.179,20.075-8.625l5.739-1.384c4.683,4.456,8.97,8.8,5.8,15.537-2.625,1.622-4.953,3.183-7.393,4.543a86.35,86.35,0,0,1-14.914,6.255c-8.817,2.94-17.806,1.9-26.7,1.72-4.541-.092-9.024-1.981-13.455-3.532a44.612,44.612,0,0,1-8.707-4.335,49.648,49.648,0,0,1-8.063-5.814,71.905,71.905,0,0,1-6.972-7.5,67.95,67.95,0,0,1-5.31-7.9c-2.084-3.524-3.17-7.669-4.472-11.617-2.761-8.373-2.028-17.058-1.977-25.662a11.331,11.331,0,0,1,1.069-5.517C899.233,91.073,898.7,89.185,899.019,87.788Zm79.866,6.078c0.653-4.582-1.01-8.723-2.332-12.585-3.587-10.48-12.847-14.969-21.687-15.268-2.656-.09-5.319-0.027-7.978-0.009-1.877.013-10.477,2.519-11.968,3.6-5.626,4.072-10.867,8.524-13.319,15.329-1.029,2.857-1.79,5.812-2.736,8.934h60.02Z"/><path class="cls-2" d="M787,160.422c0-34.968,0-69.937,0-105.35L791.075,51c10.444,0,20.445.257,30.423-.1,5.446-.2,10.726.834,16.06,1.278A45.251,45.251,0,0,1,851.4,56a20.943,20.943,0,0,0,3.8,1.644c3.315,0.675,5.077,3.648,7.9,5.057a13.044,13.044,0,0,1,3.863,3.271c4.2,4.928,8.632,9.732,11.01,15.908,1.4,3.63,3.17,7.15,3.08,11.24-0.034,1.519.707,3.04,0.911,4.584,0.187,1.412-.313,2.965,1.029,4.078-0.486,4.192,1.027,8.521-.879,12.625a3.187,3.187,0,0,0-.113,1.447c0.3,5.353-1.851,10.16-3.471,15.055-1.867,5.643-4.851,9.461-8.645,14.94-2.4,3.471-5.7,5.319-8.844,7.623a45.431,45.431,0,0,1-10.144,5.676c-6.141,2.451-12.377,3.269-18.854,4.094-6.248.8-12.408,0.531-18.6,0.715-6.156.183-12.322,0.1-18.482,0.016C791.855,163.934,788.989,163.1,787,160.422Zm21.2-13.541a12.1,12.1,0,0,0,1.529.11c5.029-.3,10.046.373,15.116-0.841,3.531-.845,7.357-0.053,11.067-1.072a39.974,39.974,0,0,0,15.277-7.781c4.247-3.534,10.01-15.286,9.819-21.92a3.731,3.731,0,0,1,.118-1.937c1.951-2.918.7-6.119,0.773-9.146a26.237,26.237,0,0,0-1.205-8.96c-1.443-4.209-2.678-8.537-5.629-12.18-3.262-4.028-6.393-7.965-11.288-10.242a30.043,30.043,0,0,0-6.572-2.267c-1.485-.313-2.832-1.321-4.318-1.582A29.163,29.163,0,0,0,827.9,69H807v74.353a4.319,4.319,0,0,0,.031,1.487A15.1,15.1,0,0,0,808.2,146.882Z"/><path class="cls-2" d="M569.016,118.738c1.524,3.7,2.555,6.8,4.022,9.667,4.084,7.99,10.762,13.161,18.89,16.561a21.7,21.7,0,0,0,6.662,1.944c4.479,0.3,9.086.641,13.459-.1a35.472,35.472,0,0,0,8.962-2.383c3.937-1.824,7.92-3.61,11.392-6.307,0.989-.769,2.089-1.4,3.175-2.111h5.247l6.139,8.738c0.6,4.43-1.543,7.58-5.776,9.606a17.7,17.7,0,0,0-3.125,2.106c-2.607,2.031-5.772,3.028-8.694,4.385a35.651,35.651,0,0,1-4.7,1.886,53.364,53.364,0,0,1-11.066,2.281c-2.544.2-5.171-.624-7.633,0.914-0.634.4-1.865-.108-2.808-0.276a10.713,10.713,0,0,0-2.724-.6c-7.219.783-13.785-1.943-20.287-4.208-4.172-1.453-7.832-4.435-11.635-6.869a21.286,21.286,0,0,1-4.855-3.9c-2.762-3.263-5.731-6.331-7.753-10.254-2.271-4.4-4.653-8.7-6.134-13.471-0.745-2.4-1.172-4.856-1.853-7.236-1.435-5.013-.963-10.078-0.859-15.1a53.321,53.321,0,0,1,6.928-25.6,48.071,48.071,0,0,1,7.129-10.056c6.531-6.716,7.511-7.651,18.733-13.73,3.479-1.885,7.314-2.479,11-3.634,2.823-.885,5.733-0.709,8.573-1.11,2.02-.285,3.994-0.978,6.1-0.874,2.234,0.109,4.391.024,6.635,0.878,1.827,0.7,4.036.649,6.06,0.969a58.557,58.557,0,0,1,16.7,5.644,61.109,61.109,0,0,1,7.577,4.61c0.676,0.464.89,1.6,1.477,2.742v4.429l-6.086,8.644h-5.2c-4.5-3.5-9.9-5.545-15.159-7.771C614.854,68,601.5,67.17,599.058,68.14a16.275,16.275,0,0,1-5.247.854,18.06,18.06,0,0,1-3.575,1.964c-7.357,1.955-12.462,6.669-16.223,13.036a46.016,46.016,0,0,0-5.217,13.874c-1.154,5.284-.656,10.447-0.615,15.629C568.195,115.39,569.069,117.475,569.016,118.738Z"/></svg>